<svg width="10" height="13" viewBox="0 0 10 13" fill="none" xmlns="http://www.w3.org/2000/svg">
<path d="M1.66634 0.998657H8.33301C9.06968 0.998657 9.66635 1.59598 9.66635 2.33199V2.99866C9.66635 3.36685 9.36787 3.66532 8.99968 3.66532C8.63149 3.66532 8.33301 3.36685 8.33301 2.99866V2.33199H1.66634V11.6653H8.33301V10.9986C8.33301 10.6304 8.63149 10.332 8.99968 10.332C9.36787 10.332 9.66635 10.6304 9.66635 10.9986V11.6653C9.66635 12.4014 9.06968 12.9986 8.33301 12.9986H1.66634C0.930341 12.9986 0.333008 12.4014 0.333008 11.6653V2.33199C0.333008 1.59598 0.930341 0.998657 1.66634 0.998657Z" fill="#F34831"/>
<path d="M6.19499 8.91772C5.93458 9.17813 5.93475 9.60047 6.19525 9.86079C6.45563 10.121 6.87771 10.121 7.13799 9.86072L9.52868 7.47003C9.78903 7.20968 9.78903 6.78757 9.52868 6.52722L7.13799 4.13656C6.87771 3.87627 6.45563 3.87629 6.19526 4.13649C5.93475 4.39681 5.93458 4.81915 6.195 5.07956L7.44742 6.33196H3.66675C3.29856 6.33196 3.00008 6.63043 3.00008 6.99862C3.00008 7.36681 3.29856 7.66529 3.66675 7.66529H7.44742L6.19499 8.91772Z" fill="#F34831"/>
</svg>
